<svg viewBox="0 0 495 74" id="logo" xmlns="http://www.w3.org/2000/svg" width="100%" height="100%"><g fill-rule="evenodd"><path d="M104.632 62.421c.174 0 .26-.076.26-.173 0-.148-.13-.458-.172-.557l-1.7-4.325c-.107-.26-.198-.557-.35-.557-.131 0-.312.313-.44.537l-2.665 4.364c-.09.158-.245.374-.245.559 0 .177.356.152.664.152h4.648zm.727 1.172c-.045-.076-.11-.296-.265-.296h-6.215c-.24 0-.286.119-.372.281l-1.697 3.055c-.092.205-.199.438-.199.711 0 .882 1.652.417 1.652.935 0 .101 0 .292-.333.292-.35 0-.855-.072-2.023-.072-.88 0-1.278.072-1.629.072-.156 0-.222-.156-.222-.236 0-.43.883-.177 1.567-1.31l7.158-12.14c.22-.376.354-.534.547-.534.287 0 .38.117.511.495l4.315 11.908c.64 1.745 1.699 1.112 1.699 1.606 0 .257-.267.211-.394.211-.927 0-1.389-.072-1.853-.072-.684 0-1.388.072-2.095.072-.33 0-.46-.035-.46-.211 0-.484 1.522-.134 1.522-.829 0-.506-.111-1.235-.532-2.288l-.682-1.65zM115.705 67.685c2.023 0 2.575-1.097 3.037-1.097.111 0 .181.105.181.226 0 .08-1.37 1.903-4.253 1.903-2.03 0-2.934-1.449-2.934-3.12 0-3.534 2.712-5.77 5.265-5.77.949 0 2.36.51 2.36 1.33 0 .573-.376.75-.818.75-.772 0-.57-1.369-2.358-1.369-2.204 0-2.97 2.798-2.97 4.33 0 1.504.614 2.817 2.49 2.817M124.068 67.7c1.717 0 2.997-1.898 2.997-2.175 0-.32.836-3.737.836-4.309 0-.277-.265-.779-1.28-.779-2.115 0-4.075 3.534-4.075 5.64 0 .315.046 1.623 1.522 1.623m2.687-7.873c.287 0 .57.1.86.193.286.126.574.226.861.226.33 0 .703-.84.965-.84.093 0 .2.049.2.18 0 .138-1.1 4.6-1.1 6.85 0 .93.397.908.55.908.615 0 .924-1.188 1.279-1.188.154 0 .306-.045.306.2 0 .213-1.054 2.215-2.227 2.215-1.01 0-1.384-1.264-1.32-2.078l-.043-.037c-.859 1.129-2.206 2.261-3.92 2.261-1.52 0-2.027-1.069-2.027-2.304 0-2.341 2.662-6.586 5.616-6.586M138.633 65.833c.33-.75.747-3.825.747-4.343 0-.67-.063-1.125-1.296-1.125-2.779 0-3.941 4.165-3.941 5.396 0 1.008.59 1.984 1.826 1.984 1.21 0 2.245-.915 2.664-1.912m1.456-9.78c.132-.734.152-.931.152-1.151 0-.615-1.559-.117-1.559-.53 0-.422.83-.22 2.372-.558.267-.061.417-.096.576-.096.154 0 .267.08.267.177 0 .096-.046.376-.089.614-.337 1.826-1.612 10.373-1.612 11.425 0 .82-.132 1.566.552 1.566.55 0 .988-1.284 1.434-1.284.088 0 .195.08.195.156 0 .619-1.078 2.2-2.313 2.2-1.21 0-1.277-1.265-1.254-2.056l-.048-.043c-.548 1.393-1.937 2.24-3.5 2.24-1.674 0-2.425-1.225-2.425-2.598 0-1.702 1.72-6.292 5.268-6.292.548 0 .992.205 1.434.479l.55-4.25M145.9 63.815c0 .096.158.156.507.156 1.187 0 3.765-.77 3.765-2.481 0-.646-.394-1.011-1.12-1.011-1.875 0-3.152 2.637-3.152 3.336m3.678-3.988c.838 0 1.941.319 1.941 1.646 0 2.144-3.417 2.915-5.135 2.915-.573 0-.616-.02-.616.539 0 2.084 1.124 2.738 2.798 2.738 1.762 0 2.204-.896 2.686-.896.154 0 .24.04.24.185 0 .273-1.692 1.763-4.03 1.763-1.96 0-3.107-1.274-3.107-2.956 0-3.02 2.78-5.934 5.223-5.934M167.09 66.849c0 .475.09.58.333.58.725 0 1.257-1.078 1.542-1.078.11 0 .22.02.22.122 0 .456-1.341 2.098-2.616 2.098-.576 0-.906-.236-.906-1.307 0-.37.107-1.542.242-2.674.107-1.112.218-2.181.218-2.342 0-.8-.2-1.488-1.257-1.488-1.804 0-2.483 2.818-2.642 4.045l-.53 3.096c-.04.378-.063.598-.285.598h-.815c-.267 0-.442.02-.442-.277 0-.598.949-5.081.949-5.797 0-.754-.2-1.642-1.483-1.665-1.805 0-2.49 2.818-2.641 4.045l-.53 3.096c-.045.378-.068.598-.288.598h-.813c-.265 0-.44.02-.44-.277 0-.598.943-5.081.943-5.797 0-.834-.045-1.23-.466-1.23-.986 0-1.007 1.17-1.448 1.17-.156 0-.222-.096-.222-.234 0-.818 1.125-2.308 2.115-2.308 1.212 0 .988 1.792.988 2.286h.05c.793-1.092 2.247-2.286 3.66-2.286 1.345 0 1.585.643 1.873 1.868.793-.93 1.96-1.868 3.22-1.868 1.496 0 1.892.96 1.892 2.286 0 1.307-.42 3.813-.42 4.74M174.09 57.58c-.329 0-.793-.912-.793-1.149 0-.296.573-1.028.904-1.028.33 0 .793.907.793 1.154 0 .291-.575 1.023-.904 1.023m-.702 9.668c.525 0 1.051-1.205 1.363-1.205.11 0 .218.068.218.197 0 .393-1.273 2.331-2.485 2.331-.707 0-.906-.75-.906-1.247 0-1.875 1.099-5.77 1.099-6.311 0-.627-1.67-.037-1.67-.594 0-.354.922-.173 2.337-.399.352-.06.594-.193.765-.193.31 0 .31.117.31.222 0 .113-1.389 5.447-1.389 6.685 0 .392.09.514.358.514M181.38 67.685c2.029 0 2.577-1.097 3.04-1.097.11 0 .172.105.172.226 0 .08-1.36 1.903-4.248 1.903-2.025 0-2.93-1.449-2.93-3.12 0-3.534 2.713-5.77 5.268-5.77.945 0 2.358.51 2.358 1.33 0 .573-.38.75-.818.75-.77 0-.577-1.369-2.358-1.369-2.202 0-2.972 2.798-2.972 4.33 0 1.504.616 2.817 2.488 2.817M198.472 60.1c-.02.146-.02.237-.02.403 0 .436.156.372.598.372h2.906c2.14 0 1.678-1.508 2.27-1.508.131 0 .199.088.199.24 0 .598-.245 1.348-.286 2.043-.072 1.137-.043 2.064-.4 2.064-.7 0 .4-1.959-1.765-1.959h-3.278c-.417 0-.484.631-.573 1.328l-.417 3.47c-.024.216-.047.413-.047.717 0 .512.136.551 1.5.551 6.829 0 6.149-2.12 6.895-2.12.133 0 .244.08.244.2 0 .214-.027.812-1.41 2.218-.326.32-.64.452-1.675.452-1.368 0-2.446-.072-4.761-.072-2.093 0-2.775.072-3.305.072-.37 0-.575.046-.575-.152 0-.598 1.24 0 1.417-1.248l1.34-9.985c.067-.418.112-.83.112-1.108 0-1.316-1.698-.84-1.698-1.332 0-.101.045-.218.616-.218 1.785 0 3.596.08 5.375.08.75 0 2.847-.08 4.736-.08.243 0 .243.1.243.177v2.201c0 .28 0 .678-.353.678-.282 0-.282-.462-.306-.635-.22-1.39-.843-1.667-4.445-1.667-.516 0-1.92-.064-2.366.197-.193.122-.216.518-.261.856l-.51 3.765M211.739 67.287c-.594.855-1.212 1.43-2.444 1.43-.421 0-.773-.201-.773-.64 0-.453.4-.69.75-.69.4 0 .548.237 1.01.237.863 0 2.492-2.958 2.492-3.156 0-.185-1.08-3.114-1.742-3.114-.834 0-.636 1.269-1.1 1.269-.15 0-.243-.177-.243-.438 0-.812.594-2.358 1.655-2.358 1.539 0 2.067 3.112 2.332 3.112.222 0 1.696-3.112 3.148-3.112.53 0 .886.238.886.715 0 .413-.154.771-.723.771-.55 0-.645-.197-.886-.197-.556 0-2.136 1.924-2.136 2.594 0 .405.99 2.43 1.255 2.999.064.14.438 1.352 1.436 1.352.343 0 .483-.039.678-.039.174 0 .306.056.306.22 0 .233-.594.475-1.689.475-.883 0-1.48-.218-1.834-.956-.79-1.621-.838-2.48-1.06-2.48-.174 0-.79 1.335-1.318 2.006M223.97 67.685c2.023 0 2.582-1.097 3.04-1.097.115 0 .18.105.18.226 0 .08-1.367 1.903-4.255 1.903-2.027 0-2.931-1.449-2.931-3.12 0-3.534 2.713-5.77 5.262-5.77.951 0 2.362.51 2.362 1.33 0 .573-.374.75-.817.75-.77 0-.575-1.369-2.352-1.369-2.21 0-2.976 2.798-2.976 4.33 0 1.504.614 2.817 2.487 2.817M231.436 63.815c0 .096.16.156.51.156 1.187 0 3.764-.77 3.764-2.481 0-.646-.4-1.011-1.121-1.011-1.881 0-3.153 2.637-3.153 3.336m3.675-3.988c.84 0 1.94.319 1.94 1.646 0 2.144-3.413 2.915-5.134 2.915-.57 0-.614-.02-.614.539 0 2.084 1.127 2.738 2.803 2.738 1.754 0 2.196-.896 2.68-.896.157 0 .245.04.245.185 0 .273-1.69 1.763-4.032 1.763-1.961 0-3.105-1.274-3.105-2.956 0-3.02 2.77-5.934 5.217-5.934M241.985 56.053c.064-.376.152-.931.152-1.151 0-.615-1.563-.117-1.563-.53 0-.422.842-.22 2.379-.562.265-.057.42-.092.57-.092.16 0 .263.08.263.177 0 .096-.367 1.825-.476 2.56l-1.413 9.424c-.041.277-.111.733-.111.85 0 .317.11.638.396.638.75 0 1.524-1.45 1.828-1.45.163 0 .243.062.243.223 0 .433-1.344 2.431-3.018 2.431-.66 0-.879-.625-.879-1.32 0-.694.13-1.473.173-1.73l1.456-9.468M248.184 56.053c.062-.376.15-.931.15-1.151 0-.615-1.561-.117-1.561-.53 0-.422.834-.22 2.378-.562.261-.057.417-.092.571-.092.152 0 .267.08.267.177 0 .096-.371 1.825-.484 2.56l-1.411 9.424a8.42 8.42 0 0 0-.11.85c0 .317.11.638.393.638.75 0 1.524-1.45 1.83-1.45.156 0 .245.062.245.223 0 .433-1.348 2.431-3.024 2.431-.655 0-.877-.625-.877-1.32 0-.694.13-1.473.173-1.73l1.46-9.468M254.177 63.815c0 .096.154.156.512.156 1.195 0 3.77-.77 3.77-2.481 0-.646-.4-1.011-1.12-1.011-1.88 0-3.162 2.637-3.162 3.336m3.685-3.988c.836 0 1.941.319 1.941 1.646 0 2.144-3.418 2.915-5.139 2.915-.575 0-.616-.02-.616.539 0 2.084 1.128 2.738 2.802 2.738 1.76 0 2.203-.896 2.688-.896.156 0 .249.04.249.185 0 .273-1.705 1.763-4.042 1.763-1.96 0-3.11-1.274-3.11-2.956 0-3.02 2.78-5.934 5.227-5.934M270.777 66.849c0 .475.093.58.335.58.73 0 1.257-1.078 1.549-1.078.107 0 .213.02.213.122 0 .456-1.343 2.098-2.627 2.098-.57 0-.9-.236-.9-1.307 0-.748.467-4.7.467-5.016 0-.26.286-1.488-1.63-1.488-1.814 0-2.496 2.818-2.648 4.045l-.528 3.096c-.043.378-.062.598-.294.598h-.811c-.265 0-.444.02-.444-.277 0-.598.947-5.081.947-5.797 0-.834-.043-1.23-.462-1.23-.988 0-1.015 1.17-1.456 1.17-.15 0-.214-.096-.214-.234 0-.818 1.121-2.308 2.116-2.308 1.21 0 .99 1.792.99 2.286h.049c.79-1.092 2.247-2.286 3.658-2.286 1.56 0 2.111.937 2.111 2.286 0 1.307-.42 3.813-.42 4.74M278.942 67.685c2.033 0 2.584-1.097 3.046-1.097.109 0 .178.105.178.226 0 .08-1.367 1.903-4.264 1.903-2.029 0-2.935-1.449-2.935-3.12 0-3.534 2.716-5.77 5.273-5.77.957 0 2.368.51 2.368 1.33 0 .573-.376.75-.817.75-.775 0-.571-1.369-2.365-1.369-2.212 0-2.982 2.798-2.982 4.33 0 1.504.622 2.817 2.498 2.817M286.332 63.815c0 .096.156.156.513.156 1.18 0 3.767-.77 3.767-2.481 0-.646-.402-1.011-1.127-1.011-1.876 0-3.153 2.637-3.153 3.336m3.683-3.988c.835 0 1.94.319 1.94 1.646 0 2.144-3.413 2.915-5.14 2.915-.571 0-.615-.02-.615.539 0 2.084 1.122 2.738 2.8 2.738 1.764 0 2.206-.896 2.69-.896.153 0 .245.04.245.185 0 .273-1.7 1.763-4.042 1.763-1.964 0-3.11-1.274-3.11-2.956 0-3.02 2.781-5.934 5.232-5.934M307.607 59.582c-.49 0-.882.085-1.307.325.245.732.77 1.01 1.613 1.01.349 0 .68-.338.68-.656 0-.553-.465-.679-.986-.679m6.408 1.655c.943.41 1.362 1.248 1.362 2.183 0 2.341-2.86 5.301-7.353 5.301-5.82 0-5.975-3.916-5.975-4.448 0-1.949 1.349-3.947 3.397-4.69-.136-.354-.177-.767-.177-1.148 0-2.3 2.066-4.084 4.605-4.084 1.146 0 2.465.534 2.465 1.702 0 .74-.66 1.41-1.495 1.41-.292 0-.421-.02-.421-.253 0-.522.35-.594.35-.91 0-.66-1.055-.876-1.605-.876-1.19 0-3.124 1.007-3.124 3.188 0 .204 0 .44.061.687.633-.21.66-.323 1.651-.323.814 0 1.896.323 1.896 1.205 0 .976-.858 1.465-1.852 1.465-.966 0-1.806-.73-2.182-1.484-1.318.598-1.96 1.649-1.96 2.979 0 2.637 2.223 4.76 5.204 4.76 2.33 0 5.352-1.585 5.352-3.946 0-1.213-.706-1.984-2.097-1.984-1.052 0-1.758.656-1.758 1.587 0 .341.306.972.745.972.793 0 .703-.438 1.044-.438.078 0 .215 0 .215.156 0 .62-.665.915-1.39.915-1.237 0-1.653-1.208-1.653-2.064 0-1.706 1.938-2.421 3.438-2.918 1.766-.599 5.071-1.727 5.071-3.789 0-.908-.598-1.566-1.637-1.507-.7.02-1.162.615-1.162 1.028 0 .82 1.187.298 1.187.964 0 .35-.37.81-.929.81-.86 0-1.257-.641-1.257-1.352 0-1.168 1.038-1.984 2.3-1.984 1.519 0 2.461 1.073 2.461 2.382 0 2.255-2.772 3.73-4.777 4.504M329.046 57.303c0-2.574 2.563-2.952 3.506-2.952 1.604 0 2.773.672 3.255.672.113 0 .46-.26.643-.26.156 0 .175.122.175.38 0 1.508.269 2.361.269 2.64 0 .073-.023.258-.243.258-.24 0-.349-.3-.42-.498-.705-1.903-2.535-2.658-3.68-2.658-1.347 0-2.072.755-2.072 1.924 0 1.21.376 1.64 2.75 3.789 2.782 2.485 3.486 3.18 3.486 4.62 0 1.255-1.058 3.5-5.33 3.5-.66 0-2.602 0-3.023-.636-.17-.265-.637-1.626-.637-2.123 0-.181.07-.358.267-.358.22 0 .24.136.327.298.862 1.45 1.809 2.2 3.816 2.2 1.602 0 3.126-.75 3.126-2.362 0-1.168-.657-1.55-3.264-4.066-2.487-2.405-2.951-3.096-2.951-4.368M341.285 67.087c-.045.3-.045.46-.045.598 0 .477.236.57.77.57 2.929 0 4.367-2.633 4.367-4.878 0-2.658-2.317-3.096-3.219-2.995-.441 0-.949.084-1.019.538l-.854 6.167zm-.51-6.236c-.768.146-1.123.442-1.275.442-.176 0-.244-.076-.244-.237 0-.337.949-.619 1.633-.795.086-.015.215-1.787.376-2.317.104-.38.922-.578 1.164-.578.175 0 .245.056.245.278 0 .14-.309 2.004-.309 2.123 0 .157.064.224.2.224.109 0 .283-.047.548-.084a6.828 6.828 0 0 1 1.097-.084c1.918 0 3.754.956 3.754 3.28 0 2.14-1.836 5.61-6.042 5.61-.177 0-.31-.02-.413-.037-.113-.02-.185-.039-.244-.039-.247 0-.467 2.066-.467 2.537 0 1.327 1.738.614 1.738 1.136 0 .115-.107.208-.327.208-.632 0-1.476-.072-2.31-.072-.487 0-.929.072-1.418.072-.129 0-.349.029-.349-.193 0-.553 1.031.045 1.214-1.232l1.43-10.242zM353.444 57.58c-.328 0-.792-.912-.792-1.149 0-.296.573-1.028.897-1.028.337 0 .795.907.795 1.154 0 .291-.571 1.023-.9 1.023m-.708 9.668c.532 0 1.058-1.205 1.364-1.205.115 0 .221.068.221.197 0 .393-1.277 2.331-2.489 2.331-.704 0-.904-.75-.904-1.247 0-1.875 1.105-5.77 1.105-6.311 0-.627-1.676-.037-1.676-.594 0-.354.929-.173 2.336-.399.35-.06.593-.193.774-.193.306 0 .306.117.306.222 0 .113-1.39 5.447-1.39 6.685 0 .392.092.514.353.514M363.618 60.403c0 .16-.35 1.545-.73 1.545-.263 0-.326-.912-1.144-.912-1.096 0-1.43 2.08-1.56 2.795l-.687 4.07c-.045.378-.063.598-.285.598h-.818c-.26 0-.437.02-.437-.277.793-4.15.877-4.588.877-5.106 0-.574-.014-1.766-.9-1.766-.79 0-.862 1.55-1.388 1.55-.107 0-.13-.138-.13-.374 0-.674.77-2.703 1.867-2.703.6 0 1.372.699 1.504 2.205.351-.382 1.563-2.205 2.838-2.205.263 0 .993.242.993.58M368.393 57.58c-.32 0-.79-.912-.79-1.149 0-.296.568-1.028.903-1.028.329 0 .79.907.79 1.154 0 .291-.566 1.023-.903 1.023m-.698 9.668c.527 0 1.055-1.205 1.361-1.205.107 0 .22.068.22.197 0 .393-1.273 2.331-2.493 2.331-.703 0-.9-.75-.9-1.247 0-1.875 1.097-5.77 1.097-6.311 0-.627-1.668-.037-1.668-.594 0-.354.92-.173 2.342-.399.349-.06.583-.193.77-.193.306 0 .306.117.306.222 0 .113-1.393 5.447-1.393 6.685 0 .392.087.514.358.514M376.7 60.26c.307 0 .62-.034.62.383 0 .389-.313.354-.62.354h-1.695c-.2 0-.997 5-.997 5.416 0 .397.023 1.05.865 1.05 1.233 0 1.717-1.128 2.112-1.128.221 0 .221.121.221.18 0 .254-1.59 2.202-3.257 2.202-1.152 0-1.364-.98-1.364-1.807 0-1.073.793-5.323.793-5.714 0-.518-1.15.016-1.15-.481 0-.072.11-.236.92-.615 1.284-.594 1.657-1.806 2.097-1.806.107 0 .242.024.242.222 0 .096-.086.32-.109.472l-.283 1.273h1.604M381.24 62.662c.062-.358.107-.646.107-.97 0-.159-.045-.4-.281-.4-.818 0-1.04 1.431-1.502 1.431-.176 0-.176-.158-.176-.242 0-1.188 1.63-2.654 2.4-2.654 1.057 0 .993 1.013.993 1.406 0 .177-.245 1.53-.462 2.898-.247 1.353-.49 2.703-.49 2.894 0 .202.023.576.442.576.88 0 4.186-3.429 4.983-7.194.089-.403.222-.422.442-.422h.723c.113 0 .2.019.2.22 0 .298-1.32 5.75-1.32 6.63 0 .287.019.628.436.628 1.06 0 1.458-1.307 1.807-1.307.111 0 .193.043.193.195 0 .576-1.404 2.362-3.126 2.362-.657 0-.813-.63-.813-1.112 0-.555.347-2.578.493-3.133l-.053-.039c-1.077 1.614-3.122 4.284-5.024 4.284-.284 0-.855-.133-.855-1.153 0-.514.06-.944.177-1.466l.706-3.432M394.65 67.7c1.718 0 3.001-1.898 3.001-2.175 0-.32.834-3.737.834-4.309 0-.277-.265-.779-1.273-.779-2.116 0-4.075 3.534-4.075 5.64 0 .315.04 1.623 1.514 1.623m2.684-7.873c.292 0 .58.1.867.193.283.126.573.226.86.226.327 0 .703-.84.96-.84.092 0 .2.049.2.18 0 .138-1.096 4.6-1.096 6.85 0 .93.399.908.549.908.612 0 .928-1.188 1.275-1.188.162 0 .312-.045.312.2 0 .213-1.056 2.215-2.228 2.215-1.015 0-1.383-1.264-1.321-2.078l-.041-.037c-.857 1.129-2.202 2.261-3.921 2.261-1.524 0-2.03-1.069-2.03-2.304 0-2.341 2.665-6.586 5.614-6.586M405.066 56.053c.064-.376.154-.931.154-1.151 0-.615-1.56-.117-1.56-.53 0-.422.835-.22 2.376-.562.262-.057.419-.092.573-.092.152 0 .26.08.26.177 0 .096-.367 1.825-.478 2.56l-1.413 9.424c-.041.277-.111.733-.111.85 0 .317.11.638.398.638.746 0 1.518-1.45 1.824-1.45.158 0 .249.062.249.223 0 .433-1.344 2.431-3.024 2.431-.655 0-.88-.625-.88-1.32 0-.694.133-1.473.182-1.73l1.45-9.468M417.554 56.688c-.618-2.023-1.738-1.328-1.738-1.842 0-.158.042-.318.214-.318.733 0 1.44.076 2.165.076 1.294 0 1.935-.076 1.935-.076s.242 0 .242.218c0 .594-1.234-.017-1.234 1.212 0 .71.152 1.308.577 2.597l1.94 6.01c.196.598.525 1.807.787 1.807.226 0 .707-.892 1.173-1.702l2.995-5.375c1.386-2.486 1.495-3.1 1.495-3.559 0-.935-1.477-.273-1.477-.974 0-.117.136-.234.356-.234.35 0 .88.076 1.538.076.974 0 1.393-.076 1.785-.076.179 0 .285.076.285.26 0 .48-.854.118-1.626 1.563l-3.498 6.491c-1.834 3.409-3.377 6.052-3.843 6.052-.392 0-.37-.278-.458-.555l-3.613-11.65M433.77 57.58c-.325 0-.79-.912-.79-1.149 0-.296.576-1.028.905-1.028.333 0 .793.907.793 1.154 0 .291-.571 1.023-.908 1.023m-.705 9.668c.534 0 1.06-1.205 1.368-1.205.11 0 .222.068.222.197 0 .393-1.275 2.331-2.493 2.331-.707 0-.9-.75-.9-1.247 0-1.875 1.099-5.77 1.099-6.311 0-.627-1.67-.037-1.67-.594 0-.354.918-.173 2.337-.399.352-.06.588-.193.77-.193.309 0 .309.117.309.222 0 .113-1.39 5.447-1.39 6.685 0 .392.083.514.348.514M441.984 60.26c.312 0 .622-.034.622.383 0 .389-.31.354-.622.354h-1.689c-.201 0-.996 5-.996 5.416 0 .397.023 1.05.859 1.05 1.236 0 1.717-1.128 2.12-1.128.217 0 .217.121.217.18 0 .254-1.588 2.202-3.264 2.202-1.144 0-1.36-.98-1.36-1.807 0-1.073.79-5.323.79-5.714 0-.518-1.147.016-1.147-.481 0-.072.11-.236.925-.615 1.283-.594 1.655-1.806 2.093-1.806.108 0 .24.024.24.222 0 .096-.086.32-.107.472l-.283 1.273h1.602M447.7 67.7c1.717 0 2.996-1.898 2.996-2.175 0-.32.836-3.737.836-4.309 0-.277-.262-.779-1.277-.779-2.114 0-4.075 3.534-4.075 5.64 0 .315.047 1.623 1.52 1.623m2.688-7.873c.29 0 .573.1.859.193.285.126.577.226.858.226.333 0 .705-.84.968-.84.09 0 .2.049.2.18 0 .138-1.104 4.6-1.104 6.85 0 .93.397.908.555.908.616 0 .922-1.188 1.275-1.188.16 0 .312-.045.312.2 0 .213-1.055 2.215-2.23 2.215-1.01 0-1.385-1.264-1.319-2.078l-.045-.037c-.859 1.129-2.202 2.261-3.919 2.261-1.522 0-2.03-1.069-2.03-2.304 0-2.341 2.667-6.586 5.62-6.586M458.382 56.053c.066-.376.158-.931.158-1.151 0-.615-1.565-.117-1.565-.53 0-.422.834-.22 2.379-.562.265-.057.417-.092.573-.092.154 0 .265.08.265.177 0 .096-.376 1.825-.489 2.56l-1.409 9.424a8.929 8.929 0 0 0-.107.85c0 .317.107.638.393.638.75 0 1.52-1.45 1.83-1.45.16 0 .24.062.24.223 0 .433-1.34 2.431-3.026 2.431-.649 0-.87-.625-.87-1.32 0-.694.133-1.473.18-1.73l1.448-9.468M465.717 57.58c-.327 0-.79-.912-.79-1.149 0-.296.576-1.028.899-1.028.335 0 .797.907.797 1.154 0 .291-.573 1.023-.906 1.023m-.702 9.668c.53 0 1.06-1.205 1.367-1.205.105 0 .216.068.216.197 0 .393-1.271 2.331-2.483 2.331-.709 0-.906-.75-.906-1.247 0-1.875 1.099-5.77 1.099-6.311 0-.627-1.676-.037-1.676-.594 0-.354.926-.173 2.337-.399.358-.06.592-.193.775-.193.306 0 .306.117.306.222 0 .113-1.393 5.447-1.393 6.685 0 .392.093.514.358.514M474.025 60.26c.304 0 .608-.034.608.383 0 .389-.304.354-.608.354h-1.696c-.202 0-.992 5-.992 5.416 0 .397.02 1.05.858 1.05 1.237 0 1.721-1.128 2.114-1.128.221 0 .221.121.221.18 0 .254-1.585 2.202-3.257 2.202-1.148 0-1.368-.98-1.368-1.807 0-1.073.79-5.323.79-5.714 0-.518-1.143.016-1.143-.481 0-.072.113-.236.926-.615 1.275-.594 1.65-1.806 2.09-1.806.112 0 .245.024.245.222 0 .096-.088.32-.109.472l-.285 1.273h1.606M484.418 61.217c0 2.875-2.711 11.31-6.523 11.31-.966 0-1.524-.498-1.524-.973 0-.417.357-.594.618-.594.485 0 1.304.55 1.658.55 1.604 0 3.015-2.894 3.015-3.331 0-1.98-2.691-6.829-3.79-6.829-1.03 0-.766 1.61-1.271 1.61-.113 0-.23-.06-.23-.317 0-2.025.955-2.82 1.922-2.82.85 0 1.721 1.35 2.138 1.988 1.757 2.678 1.933 4.051 2.29 4.051.177 0 .77-2.047.77-3.063 0-1.566-.576-1.603-.576-2.224 0-.454.22-.752.686-.752.661 0 .817.538.817 1.394M94.027 28.465h5.583c.413 0 .618-.105.618-.31a.993.993 0 0 0-.096-.368l-3.024-7.624c-.051-.13-.102-.201-.154-.214-.051-.012-.11.058-.174.214l-3.237 7.624a1.03 1.03 0 0 0-.078.386c0 .196.187.292.562.292zm-5.176 5.857l9.227-21.57c.142-.322.322-.484.542-.484.207 0 .382.168.524.503l9.051 21.55c.518 1.19.982 2.07 1.395 2.638.505.676 1.08 1.024 1.725 1.048.623.054.93.24.93.563 0 .494-.328.738-.987.738-.31 0-.678-.028-1.105-.076-1.77-.197-2.888-.294-3.352-.294-.493 0-1.629.097-3.412.294a10.39 10.39 0 0 1-1.105.076c-.66 0-.99-.244-.99-.738 0-.335.33-.522.99-.563.789-.037 1.183-.362 1.183-.97 0-.619-.234-1.525-.698-2.715l-1.319-3.413c-.168-.388-.497-.59-.988-.602h-6.997c-.633.012-1.054.245-1.26.699l-1.394 3.316c-.39.906-.583 1.693-.583 2.368 0 .853.71 1.293 2.132 1.317.788.027 1.183.214 1.183.563 0 .494-.331.738-.988.738-.31 0-.68-.028-1.105-.076-1.075-.117-1.783-.176-2.132-.176-.35 0-1.06.06-2.132.176a10.39 10.39 0 0 1-1.105.076c-.66 0-.988-.244-.988-.738 0-.31.296-.5.891-.563.542-.024 1.046-.372 1.512-1.048.425-.619.877-1.499 1.355-2.637zM124.048 12.268c1.072 0 2.056.141 2.947.427.555.167 1.187.395 1.898.678.388.169.666.251.834.251.207 0 .433-.166.678-.503.065-.079.168-.116.312-.116.36 0 .56.239.6.718.232 2.779.452 4.512.659 5.198.064.245.097.459.097.64 0 .361-.181.542-.543.542-.31 0-.601-.38-.873-1.143-.336-.982-.93-1.965-1.782-2.95-1.268-1.46-2.954-2.19-5.06-2.19-1.77 0-3.127.612-4.07 1.841-.518.66-.775 1.423-.775 2.288 0 .921.302 1.741.91 2.467.53.645 1.662 1.287 3.393 1.918 2.506.908 4.29 1.623 5.349 2.154 1.68.84 2.836 1.838 3.471 2.987.567 1.009.852 2.174.852 3.49 0 2.16-.646 4.023-1.938 5.589-.853 1.02-1.958 1.81-3.313 2.366a10.679 10.679 0 0 1-4.11.793c-1.837 0-3.84-.392-6.01-1.18-.633-.234-1.021-.485-1.163-.758-.09-.14-.16-.434-.213-.872-.103-.777-.458-2.302-1.066-4.577a2.353 2.353 0 0 1-.097-.6c0-.391.208-.584.62-.584.323 0 .602.29.834.871a12.534 12.534 0 0 0 2.424 3.824c.567.633 1.286 1.163 2.15 1.588 1.034.506 2.087.757 3.16.757 1.396 0 2.57-.42 3.528-1.26 1.072-.944 1.608-2.113 1.608-3.511 0-.75-.174-1.462-.523-2.134-.31-.581-.69-1.034-1.142-1.358-.66-.492-1.547-.944-2.658-1.36-2.596-.98-4.238-1.631-4.924-1.958-1.639-.8-2.803-1.737-3.487-2.812-.75-1.161-1.126-2.483-1.126-3.957 0-1.344.376-2.617 1.126-3.821.762-1.23 1.86-2.18 3.294-2.851 1.253-.594 2.631-.892 4.129-.892M144.164 27.164v7.528c0 1.175.33 1.98.99 2.405.672.425 1.608.639 2.81.639 1.68 0 2.984-.498 3.915-1.492 1.11-1.215 1.668-2.743 1.668-4.58 0-1.706-.53-3.096-1.59-4.169a5.854 5.854 0 0 0-2.56-1.552c-.71-.195-1.698-.292-2.963-.292-1.023 0-1.674.144-1.96.428-.205.205-.31.57-.31 1.085zm0-10.958v6.031c0 .711.123 1.184.37 1.418.296.284.82.426 1.57.426 1.137 0 2.074-.084 2.809-.253.996-.22 1.746-.835 2.249-1.844.31-.606.464-1.344.464-2.21 0-1.54-.355-2.838-1.064-3.899-.764-1.149-1.996-1.727-3.703-1.727-.97 0-1.68.169-2.132.506-.376.286-.563.802-.563 1.552zm-4.942 18.116V17.64c-.012-1.254-.15-2.128-.406-2.617-.35-.676-.988-1.03-1.92-1.069-.736-.027-1.104-.214-1.104-.563 0-.208.121-.386.368-.543.18-.13.388-.193.62-.193.31 0 .684.03 1.124.097.388.051 1.538.154 3.45.31.428.027.699.037.814.037.363 0 1.099-.05 2.21-.154.207-.025 1.382-.09 3.528-.193.452-.027.75-.04.892-.04 1.692 0 3.25.414 4.67 1.242 1.37.804 2.217 1.947 2.54 3.433.168.711.252 1.301.252 1.766 0 .787-.21 1.58-.63 2.378a5.666 5.666 0 0 1-1.697 1.967c-.425.325-1.052.62-1.88.89l-.213.117.31.08c1.008.181 1.881.453 2.617.812 2.52 1.232 3.779 3.176 3.779 5.84 0 1.579-.458 3.026-1.376 4.344a8.174 8.174 0 0 1-3.72 2.951 10.642 10.642 0 0 1-3.993.775c-1.164 0-2.65-.076-4.459-.232-1.15-.092-2.068-.138-2.752-.138-1.15 0-2.385.097-3.701.294a7.655 7.655 0 0 1-1.105.097c-.298 0-.537-.084-.717-.253-.195-.156-.292-.319-.292-.487 0-.337.33-.528.988-.582.75-.051 1.234-.4 1.454-1.048.195-.477.31-1.357.35-2.637zM187.057 17.661v10.126c0 2.224-.187 3.955-.563 5.199-1.382 4.485-4.948 6.727-10.7 6.727-4.095 0-7.151-1.095-9.166-3.295a7.835 7.835 0 0 1-2.054-4.46 23.1 23.1 0 0 1-.135-2.679V17.661c-.04-1.321-.183-2.201-.428-2.637-.349-.676-.988-1.03-1.92-1.069-.709-.027-1.064-.207-1.064-.543 0-.49.329-.737.988-.737.296 0 .665.026 1.105.078 1.783.18 2.958.271 3.527.271.776 0 1.869-.084 3.276-.253a10.7 10.7 0 0 1 1.123-.076c.647 0 .972.245.972.736 0 .323-.319.504-.951.543-.699.039-1.163.394-1.397 1.066-.205.7-.302 1.573-.29 2.621v11.483c0 1.654.167 2.953.506 3.897.528 1.513 1.452 2.666 2.77 3.453 1.28.777 2.777 1.164 4.496 1.164 2.003 0 3.716-.518 5.137-1.552 1.434-1.044 2.338-2.605 2.714-4.675.154-.88.232-2.076.232-3.588V17.66c-.052-1.334-.212-2.211-.485-2.637-.374-.676-1.072-1.03-2.093-1.069-.737-.027-1.105-.207-1.105-.543 0-.49.33-.737.99-.737.296 0 .663.026 1.103.078.957.13 1.623.193 1.996.193.31 0 .84-.051 1.59-.154.608-.078.996-.117 1.163-.117.285 0 .511.071.68.213.166.155.25.33.25.524 0 .31-.298.498-.891.562-.555.026-.93.374-1.124 1.05-.168.631-.252 1.51-.252 2.637M199.81 15.836v8.169c0 .477.084.8.25.966.22.21.64.312 1.261.312 1.46 0 2.566-.213 3.313-.641.777-.452 1.364-1.15 1.765-2.095a5.87 5.87 0 0 0 .484-2.384c0-1.747-.53-3.164-1.59-4.249-1.045-1.073-2.306-1.61-3.779-1.61-.554 0-.981.118-1.28.35-.283.206-.424.602-.424 1.182zm7.461 10.066l5.583 8.964c1.058 1.694 2.027 2.539 2.906 2.539l.699-.019c.322 0 .485.144.485.428 0 .18-.15.368-.446.563-.364.245-.867.485-1.512.718-.828.298-1.59.446-2.288.446-1.177 0-2.21-.337-3.101-1.008-.582-.43-1.015-.896-1.299-1.397l-1.55-2.755-3.819-6.403c-.336-.54-.671-.853-1.008-.931a4.427 4.427 0 0 0-.967-.097c-.389 0-.674.041-.855.118-.193.092-.29.394-.29.91v6.344c.04 1.293.194 2.172.465 2.637.388.676 1.105 1.024 2.152 1.048.736.041 1.105.228 1.105.563 0 .494-.33.738-.99.738a11.9 11.9 0 0 1-1.105-.076c-1.536-.156-2.7-.232-3.487-.232-.84 0-2.03.076-3.566.232a11.38 11.38 0 0 1-1.105.076c-.66 0-.99-.244-.99-.738 0-.31.312-.5.93-.563.699-.051 1.15-.4 1.358-1.048.193-.67.292-1.55.292-2.637v-16.66c-.054-1.335-.183-2.212-.388-2.638-.325-.676-.906-1.03-1.744-1.069-.686-.027-1.027-.207-1.027-.543 0-.49.32-.737.967-.737.232 0 .608.026 1.124.078 1.086.09 2.319.135 3.703.135.672 0 1.434-.012 2.286-.039 1.927-.078 3.056-.117 3.393-.117 2.286 0 4.198.46 5.737 1.377 2.068 1.256 3.101 3.106 3.101 5.548 0 2.833-1.583 4.915-4.749 6.245zM229.947 24.895l4.167-7.234c.594-1.023.892-1.864.892-2.522 0-.75-.653-1.139-1.958-1.165-.788-.025-1.183-.212-1.183-.562 0-.49.331-.737.99-.737.296 0 .664.026 1.103.078.88.117 1.518.174 1.92.174.258 0 .86-.057 1.802-.174a9.457 9.457 0 0 1 1.105-.078c.66 0 .988.24.988.717 0 .298-.271.485-.813.563-.4.04-.847.393-1.337 1.07-.389.527-.925 1.399-1.609 2.616l-4.633 8.323c-.284.489-.452.871-.504 1.143-.078.257-.117.639-.117 1.145v6.09c.066 1.332.232 2.204.506 2.617.412.686 1.168 1.042 2.267 1.069.762.026 1.142.207 1.142.542 0 .494-.328.738-.988.738-.283 0-.65-.028-1.105-.076-1.768-.18-3.06-.273-3.876-.273-.903 0-2.242.092-4.013.273-.452.048-.82.076-1.103.076-.66 0-.988-.244-.988-.738 0-.322.323-.505.968-.542.75-.052 1.26-.202 1.532-.446.425-.325.665-1.404.717-3.24v-5.587c-.013-.66-.208-1.33-.582-2.016l-5.08-9.078c-.67-1.19-1.246-2.07-1.722-2.637-.584-.676-1.196-1.024-1.843-1.05-.62-.052-.93-.239-.93-.562 0-.49.33-.737.988-.737.31 0 .68.026 1.105.078 1.77.193 2.863.29 3.276.29.4 0 1.487-.097 3.255-.29a9.352 9.352 0 0 1 1.087-.078c.672 0 1.008.246 1.008.737 0 .323-.312.51-.93.562-.596.039-.891.273-.891.7 0 .595.398 1.59 1.201 2.987l4.186 7.234M279.544 17.661v10.126c0 2.224-.19 3.955-.563 5.199-1.383 4.485-4.95 6.727-10.7 6.727-4.095 0-7.151-1.095-9.168-3.295a7.821 7.821 0 0 1-2.054-4.46 23.058 23.058 0 0 1-.138-2.679V17.661c-.037-1.321-.178-2.201-.425-2.637-.349-.676-.988-1.03-1.918-1.069-.71-.027-1.066-.207-1.066-.543 0-.49.329-.737.988-.737.296 0 .665.026 1.107.078 1.78.18 2.956.271 3.527.271.774 0 1.867-.084 3.274-.253.466-.051.84-.076 1.125-.076.647 0 .97.245.97.736 0 .323-.317.504-.95.543-.698.039-1.162.394-1.396 1.066-.208.7-.304 1.573-.292 2.621v11.483c0 1.654.169 2.953.506 3.897.53 1.513 1.452 2.666 2.77 3.453 1.28.777 2.777 1.164 4.498 1.164 2.001 0 3.714-.518 5.135-1.552 1.436-1.044 2.338-2.605 2.714-4.675.154-.88.232-2.076.232-3.588V17.66c-.052-1.334-.212-2.211-.483-2.637-.378-.676-1.074-1.03-2.095-1.069-.737-.027-1.103-.207-1.103-.543 0-.49.33-.737.988-.737.296 0 .665.026 1.103.078.96.13 1.623.193 1.998.193.308 0 .838-.051 1.588-.154.608-.078.994-.117 1.163-.117.285 0 .511.071.68.213.168.155.252.33.252.524 0 .31-.298.498-.891.562-.557.026-.93.374-1.126 1.05-.168.631-.25 1.51-.25 2.637M289.99 19.211v15.11c0 1.205.154 2.077.466 2.62.399.674 1.111 1.03 2.13 1.066.737.027 1.105.214 1.105.563 0 .494-.335.738-1.008.738-.298 0-.66-.028-1.085-.076-.994-.133-1.674-.197-2.035-.197-.479 0-1.196.064-2.153.197-.425.048-.787.076-1.084.076-.672 0-1.009-.244-1.009-.738 0-.322.33-.51.99-.563.787-.063 1.304-.42 1.549-1.067.18-.437.285-1.311.31-2.618V17.737l-.347-.871c-.298-.777-.557-1.34-.779-1.69-.384-.543-.825-.898-1.314-1.067-.325-.102-.776-.16-1.358-.174-.427-.013-.64-.187-.64-.523 0-.49.324-.737.97-.737.284 0 .658.026 1.124.078.814.102 1.498.154 2.054.154.491 0 1.44-.058 2.847-.175h.158a.94.94 0 0 1 .54.175c.093.053.307.273.643.66L307.2 31.082v-13.42c.014-1.19-.142-2.07-.464-2.638-.389-.676-1.093-1.03-2.114-1.069-.735-.027-1.103-.207-1.103-.543 0-.49.32-.737.97-.737.14 0 1.193.09 3.159.27h.057c.027 0 .536-.057 1.53-.174.567-.064.943-.096 1.126-.096.645 0 .97.246.97.737 0 .31-.3.492-.894.543-.608.052-1 .407-1.181 1.07-.132.383-.208 1.265-.232 2.636v21.066c0 .633-.195.951-.581.951-.286 0-.647-.252-1.087-.758L289.99 19.21M317.451 34.46V17.64c-.012-1.24-.16-2.114-.446-2.616-.347-.676-1.027-1.03-2.035-1.069-.721-.027-1.085-.214-1.085-.563 0-.232.111-.42.331-.561.154-.105.355-.156.6-.156.09 0 .476.032 1.162.096 1.886.181 3.044.271 3.472.271.27 0 1.376-.096 3.313-.29.466-.05.833-.077 1.105-.077.657 0 .99.246.99.737 0 .31-.306.498-.914.562-.658.053-1.085.403-1.278 1.05-.195.71-.283 1.589-.273 2.637v16.66c.068 1.345.228 2.225.487 2.638.386.676 1.105 1.024 2.152 1.048.748.027 1.122.214 1.122.563 0 .494-.329.738-.988.738-.286 0-.651-.028-1.105-.076-1.59-.156-2.771-.232-3.547-.232-.853 0-2.036.076-3.546.232a11.38 11.38 0 0 1-1.105.076c-.661 0-.99-.244-.99-.738 0-.322.313-.51.93-.563.7-.051 1.151-.4 1.358-1.048.194-.607.29-1.441.29-2.5M343.637 32.498l6.279-14.818c.413-.958.622-1.733.622-2.327 0-.867-.661-1.322-1.978-1.359-.776-.027-1.164-.214-1.164-.563 0-.504.324-.756.969-.756.31 0 .686.032 1.126.096.942.13 1.587.195 1.936.195.35 0 .958-.065 1.822-.195a8.397 8.397 0 0 1 1.126-.096c.645 0 .967.246.967.737 0 .296-.283.486-.852.562-.479.065-.924.421-1.337 1.066a18.24 18.24 0 0 0-1.337 2.64l-9.284 21.493c-.156.36-.337.54-.545.54-.217 0-.412-.2-.58-.598l-9.225-21.435c-.698-1.577-1.261-2.586-1.686-3.026-.364-.4-.847-.635-1.455-.699-.425-.051-.64-.232-.64-.543 0-.49.33-.737.99-.737.295 0 .665.026 1.105.078 1.511.168 2.505.252 2.984.252.452 0 1.46-.084 3.023-.252a9.457 9.457 0 0 1 1.105-.078c.66 0 .988.246.988.737 0 .323-.301.51-.91.562-.556.053-.833.343-.833.873 0 .621.256 1.565.774 2.833l6.01 14.818M365.828 27.902v6.748c0 1.049.166 1.768.503 2.155.31.35.994.524 2.054.524 1.68 0 2.894-.072 3.643-.212 1.617-.298 2.975-.88 4.071-1.747.44-.337.82-.742 1.142-1.221l.487-.738c.195-.286.392-.425.602-.425.335 0 .503.199.503.6 0 .723-.259 1.628-.776 2.715-.657 1.371-1.383 2.265-2.171 2.678-.57.297-1.364.447-2.385.447-.452 0-1.588-.066-3.41-.194-2.79-.197-4.652-.294-5.582-.294-.945 0-2.346.097-4.204.294-.481.048-.849.076-1.108.076-.659 0-.987-.244-.987-.738 0-.322.316-.51.95-.563.736-.051 1.208-.4 1.414-1.048.207-.67.312-1.55.312-2.637v-16.66c-.054-1.347-.195-2.225-.427-2.638-.337-.676-.95-1.03-1.843-1.069-.698-.027-1.047-.207-1.047-.543 0-.49.332-.737.99-.737.285 0 .65.026 1.105.078 2.699.271 4.646.407 5.833.407 2.686 0 5.755-.142 9.206-.428.337-.025.608-.037.815-.037.35 0 .608.07.776.212.169.144.265.512.29 1.106-.014.066.04.62.154 1.669.13 1.021.195 1.673.195 1.959 0 .686-.22 1.028-.66 1.028-.27 0-.484-.309-.64-.932-.269-1.188-.756-2.004-1.452-2.446-.71-.45-2.198-.678-4.46-.678-1.718 0-2.77.062-3.158.177-.491.152-.735.744-.735 1.765v6.71c0 .518.096.847.29.99.246.17.788.251 1.628.251 1.756 0 3.077-.117 3.954-.35.93-.244 1.536-.961 1.822-2.151.13-.518.343-.775.638-.775.389 0 .584.25.584.754 0 .105-.006.24-.02.41a41.124 41.124 0 0 0-.058 2.345c0 .363.045 1.617.135 3.765l.019.368v.097c0 .582-.232.874-.697.874-.232 0-.406-.118-.523-.35-.027-.053-.13-.421-.31-1.106-.26-.93-.783-1.527-1.572-1.786-.657-.218-1.774-.329-3.352-.329-1.201 0-1.932.125-2.19.37-.231.218-.348.637-.348 1.26M388.928 15.836v8.169c0 .477.084.8.253.966.22.21.64.312 1.259.312 1.46 0 2.565-.213 3.317-.641.774-.452 1.362-1.15 1.762-2.095a5.87 5.87 0 0 0 .485-2.384c0-1.747-.53-3.164-1.59-4.249-1.047-1.073-2.306-1.61-3.779-1.61-.557 0-.982.118-1.28.35-.285.206-.427.602-.427 1.182zm7.464 10.066l5.58 8.964c1.06 1.694 2.03 2.539 2.91 2.539l.696-.019c.324 0 .486.144.486.428 0 .18-.148.368-.447.563-.362.245-.865.485-1.51.718-.83.298-1.592.446-2.29.446-1.175 0-2.208-.337-3.1-1.008-.583-.43-1.014-.896-1.298-1.397l-1.55-2.755-3.82-6.403c-.336-.54-.672-.853-1.007-.931a4.44 4.44 0 0 0-.968-.097c-.39 0-.673.041-.854.118-.193.092-.292.394-.292.91v6.344c.04 1.293.195 2.172.464 2.637.39.676 1.108 1.024 2.153 1.048.737.041 1.105.228 1.105.563 0 .494-.329.738-.988.738-.271 0-.64-.028-1.105-.076-1.538-.156-2.7-.232-3.488-.232-.842 0-2.03.076-3.567.232-.452.048-.82.076-1.105.076-.66 0-.988-.244-.988-.738 0-.31.31-.5.93-.563.699-.051 1.148-.4 1.356-1.048.195-.67.291-1.55.291-2.637v-16.66c-.05-1.335-.18-2.212-.388-2.638-.322-.676-.903-1.03-1.743-1.069-.684-.027-1.027-.207-1.027-.543 0-.49.322-.737.967-.737.234 0 .608.026 1.125.078 1.085.09 2.32.135 3.704.135.67 0 1.433-.012 2.286-.039 1.926-.078 3.054-.117 3.393-.117 2.286 0 4.198.46 5.735 1.377 2.068 1.256 3.101 3.106 3.101 5.548 0 2.833-1.582 4.915-4.747 6.245zM417.32 12.268c1.074 0 2.054.141 2.947.427.555.167 1.19.395 1.9.678.386.169.666.251.834.251.206 0 .431-.166.678-.503.064-.079.166-.116.308-.116.364 0 .565.239.602.718.234 2.779.452 4.512.66 5.198.065.245.096.459.096.64 0 .361-.181.542-.543.542-.31 0-.6-.38-.872-1.143-.335-.982-.929-1.965-1.783-2.95-1.266-1.46-2.954-2.19-5.06-2.19-1.768 0-3.127.612-4.07 1.841-.518.66-.774 1.423-.774 2.288 0 .921.304 1.741.912 2.467.53.645 1.657 1.287 3.39 1.918 2.506.908 4.29 1.623 5.351 2.154 1.678.84 2.837 1.838 3.467 2.987.571 1.009.855 2.174.855 3.49 0 2.16-.647 4.023-1.94 5.589-.852 1.02-1.957 1.81-3.312 2.366-1.28.528-2.65.793-4.11.793-1.836 0-3.84-.392-6.008-1.18-.635-.234-1.02-.485-1.165-.758-.088-.14-.162-.434-.211-.872-.105-.777-.46-2.302-1.068-4.577a2.353 2.353 0 0 1-.097-.6c0-.391.208-.584.62-.584.323 0 .602.29.834.871a12.606 12.606 0 0 0 2.422 3.824c.571.633 1.286 1.163 2.153 1.588 1.033.506 2.086.757 3.159.757 1.396 0 2.571-.42 3.528-1.26 1.072-.944 1.608-2.113 1.608-3.511 0-.75-.174-1.462-.523-2.134-.31-.581-.693-1.034-1.142-1.358-.662-.492-1.545-.944-2.656-1.36-2.598-.98-4.24-1.631-4.923-1.958-1.644-.8-2.804-1.737-3.49-2.812-.748-1.161-1.124-2.483-1.124-3.957 0-1.344.376-2.617 1.124-3.821.762-1.23 1.86-2.18 3.297-2.851 1.252-.594 2.629-.892 4.126-.892M432.671 34.46V17.64c-.012-1.24-.16-2.114-.446-2.616-.349-.676-1.027-1.03-2.035-1.069-.723-.027-1.087-.214-1.087-.563 0-.232.111-.42.333-.561.154-.105.353-.156.6-.156.09 0 .476.032 1.162.096 1.886.181 3.042.271 3.47.271.27 0 1.376-.096 3.315-.29.464-.05.833-.077 1.105-.077.657 0 .988.246.988.737 0 .31-.304.498-.912.562-.658.053-1.085.403-1.278 1.05-.195.71-.285 1.589-.273 2.637v16.66c.066 1.345.228 2.225.485 2.638.388.676 1.105 1.024 2.152 1.048.748.027 1.124.214 1.124.563 0 .494-.329.738-.988.738-.286 0-.653-.028-1.105-.076-1.59-.156-2.771-.232-3.547-.232-.853 0-2.036.076-3.548.232-.452.048-.82.076-1.105.076-.659 0-.988-.244-.988-.738 0-.322.31-.51.93-.563.7-.051 1.151-.4 1.356-1.048.196-.607.292-1.441.292-2.5M451.953 14.925h-3.12c-.918 0-1.628.194-2.131.582-.364.271-.66.666-.894 1.182-.127.286-.353.847-.678 1.688-.205.518-.464.777-.776.777-.113 0-.238-.06-.366-.177a.471.471 0 0 1-.156-.35c0-.022.013-.067.04-.133.077-.413.237-1.986.482-4.714.041-.466.138-.762.292-.892.205-.156.447-.232.716-.232.13 0 .325.025.584.076.799.156 1.9.234 3.294.234l6.125-.039h3.258l3.873.04c1.048 0 1.952-.052 2.716-.157.659-.078 1.084-.115 1.28-.115a.749.749 0 0 0 .289-.039.494.494 0 0 1 .096-.02c.027 0 .118.045.272.135.18.09.304.271.37.543.01.09.114 1.18.31 3.258l.192 1.98c-.012.221-.102.376-.27.466-.142.076-.233.117-.272.117-.322 0-.554-.286-.698-.855-.35-1.293-.793-2.185-1.337-2.674-.466-.454-1.181-.68-2.153-.68h-3.641c-.584.014-.951.12-1.107.33-.169.181-.253.469-.253.872v18.194c.053 1.344.201 2.224.448 2.637.4.676 1.123 1.024 2.17 1.048.748.027 1.124.214 1.124.563 0 .494-.328.738-.99.738-.257 0-.624-.028-1.103-.076-1.46-.144-2.713-.218-3.76-.218-1.163 0-2.443.074-3.837.218-.479.048-.847.076-1.105.076-.66 0-.988-.244-.988-.738 0-.335.31-.522.93-.563.774-.051 1.286-.205 1.53-.464.364-.335.575-1.41.64-3.221V16.128c0-.415-.058-.699-.175-.853-.142-.22-.549-.335-1.22-.35M484.69 24.895l4.167-7.234c.593-1.023.891-1.864.891-2.522 0-.75-.653-1.139-1.957-1.165-.789-.025-1.181-.212-1.181-.562 0-.49.328-.737.988-.737.297 0 .665.026 1.105.078.879.117 1.517.174 1.918.174.259 0 .86-.057 1.803-.174a9.427 9.427 0 0 1 1.105-.078c.658 0 .988.24.988.717 0 .298-.273.485-.813.563-.403.04-.846.393-1.34 1.07-.385.527-.923 1.399-1.607 2.616l-4.634 8.323c-.282.489-.452.871-.503 1.143-.076.257-.117.639-.117 1.145v6.09c.065 1.332.234 2.204.505 2.617.415.686 1.169 1.042 2.267 1.069.762.026 1.144.207 1.144.542 0 .494-.328.738-.99.738-.28 0-.65-.028-1.103-.076-1.77-.18-3.062-.273-3.877-.273-.904 0-2.241.092-4.012.273a11.34 11.34 0 0 1-1.105.076c-.66 0-.988-.244-.988-.738 0-.322.323-.505.968-.542.751-.052 1.26-.202 1.534-.446.425-.325.663-1.404.715-3.24v-5.587c-.013-.66-.206-1.33-.581-2.016l-5.08-9.078c-.672-1.19-1.245-2.07-1.723-2.637-.581-.676-1.196-1.024-1.843-1.05-.62-.052-.928-.239-.928-.562 0-.49.329-.737.986-.737.312 0 .68.026 1.105.078 1.773.193 2.863.29 3.276.29.4 0 1.487-.097 3.258-.29a9.32 9.32 0 0 1 1.084-.078c.674 0 1.009.246 1.009.737 0 .323-.31.51-.929.562-.598.039-.893.273-.893.7 0 .595.4 1.59 1.201 2.987l4.186 7.234M62.506 11.472C55.586 4.537 46.396.717 36.616.717c-9.783 0-18.979 3.82-25.888 10.755C3.804 18.412 0 27.632 0 37.442c0 9.811 3.804 19.03 10.728 25.968a36.092 36.092 0 0 0 3.222 2.873l1.524-.513 24.596-8.21V74c8.473-.791 16.348-4.481 22.436-10.59 6.915-6.938 10.723-16.157 10.723-25.968 0-9.81-3.808-19.03-10.723-25.97zM38.9 55.97l-25.163 8.407a35.68 35.68 0 0 1-2.5-2.36L38.9 52.77v3.199zm-14.205.146V32.262c0-.814.267-1.505.458-1.998.371-.983 1.328-2.454 3.078-2.481l.076.002s.504.012.859.306c.34.3.532.716.56 1.497l.007 24.843-5.038 1.684zm13.771-28.41c-2.559.074-2.668 2.333-2.668 2.333v22.366l-4.738 1.579-.004-24.2c-.03-2.66-1.855-3.044-2.86-3.098h-.045c-.425.008-.661.056-.65.054-1.798.347-4.489 2.612-4.68 6.146v23.85L10.245 60.94a35.275 35.275 0 0 1-8.918-23.497c0-19.322 15.441-35.025 34.617-35.382V8c-5.196.115-9.561 2.855-10.913 3.824l.822.54c6.246-2.906 14.786-3.805 19.662 5.277l-12.796-.829-13.829 4.644-2.005-1.307-1.433 8.06 3.775 2.464 1.263-7.063 12.23-4.12 12.795.835v3.254l-8.464-.547.914 1.402 7 .453v29.047l-3.896-2.545V30.025s-.052-2.246-2.603-2.32zm21.661 36.114l-6.663-4.337V32.983h.974l3.253-9.675-8.302-5.418c-1.943-5.3-5.585-8.14-12.102-9.828l-.006-6.002c19.176.357 34.609 16.06 34.609 35.382 0 10.481-4.537 19.894-11.763 26.377z"></path></g></svg>